<svg xmlns="http://www.w3.org/2000/svg" xmlns:xlink="http://www.w3.org/1999/xlink" width="1000" zoomAndPan="magnify" viewBox="0 0 750 749.999995" height="1000" preserveAspectRatio="xMidYMid meet" version="1.0"><defs><g/></defs><path fill="#ffffff" d="M 365.128906 225 C 287.824219 225 225 287.824219 225 365.128906 C 225 442.429688 287.824219 505.253906 365.128906 505.253906 C 378.238281 505.253906 391.054688 503.363281 403.34375 499.878906 L 403.34375 475.296875 C 393.816406 484.503906 383.015625 490.402344 371.496094 492.019531 L 371.496094 441.558594 L 403.34375 441.558594 L 403.34375 428.820312 L 371.496094 428.820312 L 371.496094 371.496094 L 403.34375 371.496094 L 403.34375 358.757812 L 371.496094 358.757812 L 371.496094 301.433594 L 431.183594 301.433594 C 436.882812 317.878906 440.492188 336.589844 441.285156 356.59375 L 447.929688 362.839844 L 454.226562 368.710938 L 457.183594 371.496094 L 492.292969 371.496094 C 491.792969 381.226562 490.25 390.777344 487.613281 400.035156 L 497.914062 409.6875 C 502.71875 395.433594 505.253906 380.453125 505.253906 365.128906 C 505.253906 287.824219 442.429688 225 365.128906 225 Z M 358.757812 238.261719 L 358.757812 288.695312 L 304.246094 288.695312 C 306.632812 283.445312 309.171875 278.445312 311.984375 273.914062 C 324.695312 253.390625 341.09375 240.75 358.757812 238.261719 Z M 371.496094 238.261719 C 393.816406 241.347656 413.394531 260.453125 426.132812 288.695312 L 371.496094 288.695312 Z M 412.898438 246.996094 C 434.542969 255.753906 453.15625 270.308594 466.964844 288.695312 L 439.769531 288.695312 C 432.800781 271.949219 423.621094 257.742188 412.898438 246.996094 Z M 316.882812 247.242188 C 311.136719 253.039062 305.8125 259.683594 301.160156 267.199219 C 297.078125 273.789062 293.445312 281.007812 290.285156 288.695312 L 263.339844 288.695312 C 277.050781 270.457031 295.460938 256 316.882812 247.242188 Z M 254.882812 301.433594 L 285.632812 301.433594 C 280.035156 318.800781 276.726562 338.207031 276.15625 358.757812 L 237.886719 358.757812 C 238.933594 337.90625 245.027344 318.453125 254.882812 301.433594 Z M 299.121094 301.433594 L 358.757812 301.433594 L 358.757812 358.757812 L 288.894531 358.757812 C 289.515625 337.90625 293.148438 318.402344 299.121094 301.433594 Z M 444.445312 301.433594 L 475.472656 301.433594 C 485.300781 318.453125 491.320312 337.933594 492.339844 358.757812 L 454.101562 358.757812 C 453.503906 338.183594 450.121094 318.773438 444.445312 301.433594 Z M 237.886719 371.496094 L 276.15625 371.496094 C 276.726562 392.046875 280.035156 411.453125 285.632812 428.820312 L 254.882812 428.820312 C 245.027344 411.804688 238.933594 392.347656 237.886719 371.496094 Z M 288.894531 371.496094 L 358.757812 371.496094 L 358.757812 428.820312 L 299.121094 428.820312 C 293.148438 411.851562 289.515625 392.347656 288.894531 371.496094 Z M 428.523438 371.496094 C 425.140625 371.671875 422.453125 374.457031 422.453125 377.867188 L 422.453125 500.476562 C 422.453125 503.066406 423.996094 505.378906 426.382812 506.347656 C 428.773438 507.34375 431.507812 506.796875 433.324219 504.980469 L 452.507812 485.773438 L 468.507812 520.65625 C 469.972656 523.839844 473.757812 525.234375 476.964844 523.765625 L 501.546875 512.519531 C 504.730469 511.050781 506.125 507.269531 504.65625 504.058594 L 488.0625 467.835938 L 517.992188 467.835938 C 520.605469 467.835938 522.96875 466.242188 523.914062 463.804688 C 524.886719 461.367188 524.261719 458.605469 522.347656 456.8125 L 433.175781 373.214844 C 431.90625 372.042969 430.238281 371.421875 428.523438 371.496094 Z M 435.191406 392.570312 L 501.871094 455.09375 L 478.980469 455.09375 C 477.984375 455.09375 477.015625 455.320312 476.121094 455.765625 L 475.449219 456.117188 C 472.386719 457.660156 471.070312 461.339844 472.511719 464.449219 L 490.425781 503.5625 L 477.414062 509.535156 L 460.269531 472.140625 C 459.425781 470.246094 457.660156 468.902344 455.617188 468.53125 C 453.554688 468.15625 451.464844 468.828125 449.996094 470.324219 L 435.191406 485.101562 Z M 263.339844 441.558594 L 290.285156 441.558594 C 293.445312 449.25 297.078125 456.464844 301.160156 463.058594 C 305.8125 470.570312 311.136719 477.214844 316.882812 483.011719 C 295.460938 474.253906 277.050781 459.796875 263.339844 441.558594 Z M 304.246094 441.558594 L 358.757812 441.558594 L 358.757812 491.992188 C 341.09375 489.503906 324.695312 476.867188 311.984375 456.363281 C 309.171875 451.8125 306.632812 446.808594 304.246094 441.558594 Z M 304.246094 441.558594 " fill-opacity="1" fill-rule="nonzero"/><g fill="#ffffff" fill-opacity="1"><g transform="translate(257.238271, 554.099993)"><g><path d="M 15.34375 -11.34375 C 16.625 -11.070312 17.648438 -10.4375 18.421875 -9.4375 C 19.203125 -8.4375 19.59375 -7.296875 19.59375 -6.015625 C 19.59375 -4.171875 18.945312 -2.707031 17.65625 -1.625 C 16.363281 -0.539062 14.5625 0 12.25 0 L 1.953125 0 L 1.953125 -22.109375 L 11.90625 -22.109375 C 14.15625 -22.109375 15.914062 -21.59375 17.1875 -20.5625 C 18.457031 -19.539062 19.09375 -18.144531 19.09375 -16.375 C 19.09375 -15.070312 18.75 -13.988281 18.0625 -13.125 C 17.382812 -12.269531 16.476562 -11.675781 15.34375 -11.34375 Z M 7.34375 -13.171875 L 10.875 -13.171875 C 11.75 -13.171875 12.421875 -13.363281 12.890625 -13.75 C 13.367188 -14.132812 13.609375 -14.707031 13.609375 -15.46875 C 13.609375 -16.21875 13.367188 -16.789062 12.890625 -17.1875 C 12.421875 -17.59375 11.75 -17.796875 10.875 -17.796875 L 7.34375 -17.796875 Z M 11.3125 -4.34375 C 12.207031 -4.34375 12.898438 -4.546875 13.390625 -4.953125 C 13.890625 -5.367188 14.140625 -5.960938 14.140625 -6.734375 C 14.140625 -7.515625 13.878906 -8.125 13.359375 -8.5625 C 12.847656 -9.007812 12.144531 -9.234375 11.25 -9.234375 L 7.34375 -9.234375 L 7.34375 -4.34375 Z M 11.3125 -4.34375 "/></g></g></g><g fill="#ffffff" fill-opacity="1"><g transform="translate(277.9968, 554.099993)"><g><path d="M 0.875 -8.8125 C 0.875 -10.625 1.210938 -12.210938 1.890625 -13.578125 C 2.578125 -14.941406 3.507812 -15.988281 4.6875 -16.71875 C 5.863281 -17.457031 7.175781 -17.828125 8.625 -17.828125 C 9.863281 -17.828125 10.953125 -17.570312 11.890625 -17.0625 C 12.828125 -16.5625 13.546875 -15.90625 14.046875 -15.09375 L 14.046875 -17.578125 L 19.4375 -17.578125 L 19.4375 0 L 14.046875 0 L 14.046875 -2.484375 C 13.523438 -1.671875 12.796875 -1.007812 11.859375 -0.5 C 10.921875 0 9.832031 0.25 8.59375 0.25 C 7.164062 0.25 5.863281 -0.117188 4.6875 -0.859375 C 3.507812 -1.609375 2.578125 -2.671875 1.890625 -4.046875 C 1.210938 -5.421875 0.875 -7.007812 0.875 -8.8125 Z M 14.046875 -8.78125 C 14.046875 -10.125 13.671875 -11.1875 12.921875 -11.96875 C 12.179688 -12.75 11.273438 -13.140625 10.203125 -13.140625 C 9.128906 -13.140625 8.21875 -12.753906 7.46875 -11.984375 C 6.726562 -11.222656 6.359375 -10.164062 6.359375 -8.8125 C 6.359375 -7.46875 6.726562 -6.398438 7.46875 -5.609375 C 8.21875 -4.828125 9.128906 -4.4375 10.203125 -4.4375 C 11.273438 -4.4375 12.179688 -4.820312 12.921875 -5.59375 C 13.671875 -6.375 14.046875 -7.4375 14.046875 -8.78125 Z M 14.046875 -8.78125 "/></g></g></g><g fill="#ffffff" fill-opacity="1"><g transform="translate(299.385326, 554.099993)"><g><path d="M 12.65625 -17.765625 C 14.71875 -17.765625 16.363281 -17.097656 17.59375 -15.765625 C 18.820312 -14.429688 19.4375 -12.597656 19.4375 -10.265625 L 19.4375 0 L 14.078125 0 L 14.078125 -9.546875 C 14.078125 -10.722656 13.769531 -11.632812 13.15625 -12.28125 C 12.550781 -12.9375 11.734375 -13.265625 10.703125 -13.265625 C 9.679688 -13.265625 8.863281 -12.9375 8.25 -12.28125 C 7.644531 -11.632812 7.34375 -10.722656 7.34375 -9.546875 L 7.34375 0 L 1.953125 0 L 1.953125 -17.578125 L 7.34375 -17.578125 L 7.34375 -15.25 C 7.882812 -16.019531 8.617188 -16.628906 9.546875 -17.078125 C 10.472656 -17.535156 11.507812 -17.765625 12.65625 -17.765625 Z M 12.65625 -17.765625 "/></g></g></g><g fill="#ffffff" fill-opacity="1"><g transform="translate(320.616358, 554.099993)"><g><path d="M 12.6875 0 L 7.34375 -7.375 L 7.34375 0 L 1.953125 0 L 1.953125 -23.3125 L 7.34375 -23.3125 L 7.34375 -10.421875 L 12.65625 -17.578125 L 19.3125 -17.578125 L 12 -8.75 L 19.375 0 Z M 12.6875 0 "/></g></g></g><g fill="#ffffff" fill-opacity="1"><g transform="translate(340.083387, 554.099993)"><g><path d="M 18.515625 -9.078125 C 18.515625 -8.566406 18.484375 -8.039062 18.421875 -7.5 L 6.234375 -7.5 C 6.316406 -6.40625 6.664062 -5.566406 7.28125 -4.984375 C 7.90625 -4.410156 8.671875 -4.125 9.578125 -4.125 C 10.921875 -4.125 11.851562 -4.691406 12.375 -5.828125 L 18.109375 -5.828125 C 17.816406 -4.671875 17.285156 -3.628906 16.515625 -2.703125 C 15.753906 -1.785156 14.796875 -1.0625 13.640625 -0.53125 C 12.484375 -0.0078125 11.191406 0.25 9.765625 0.25 C 8.046875 0.25 6.515625 -0.113281 5.171875 -0.84375 C 3.828125 -1.582031 2.773438 -2.632812 2.015625 -4 C 1.253906 -5.363281 0.875 -6.957031 0.875 -8.78125 C 0.875 -10.613281 1.25 -12.210938 2 -13.578125 C 2.75 -14.941406 3.796875 -15.988281 5.140625 -16.71875 C 6.484375 -17.457031 8.023438 -17.828125 9.765625 -17.828125 C 11.460938 -17.828125 12.972656 -17.46875 14.296875 -16.75 C 15.617188 -16.039062 16.648438 -15.023438 17.390625 -13.703125 C 18.140625 -12.378906 18.515625 -10.835938 18.515625 -9.078125 Z M 13.015625 -10.484375 C 13.015625 -11.410156 12.695312 -12.144531 12.0625 -12.6875 C 11.4375 -13.238281 10.648438 -13.515625 9.703125 -13.515625 C 8.796875 -13.515625 8.03125 -13.25 7.40625 -12.71875 C 6.789062 -12.195312 6.410156 -11.453125 6.265625 -10.484375 Z M 13.015625 -10.484375 "/></g></g></g><g fill="#ffffff" fill-opacity="1"><g transform="translate(359.487416, 554.099993)"><g><path d="M 0.875 -8.8125 C 0.875 -10.625 1.210938 -12.210938 1.890625 -13.578125 C 2.578125 -14.941406 3.507812 -15.988281 4.6875 -16.71875 C 5.863281 -17.457031 7.175781 -17.828125 8.625 -17.828125 C 9.78125 -17.828125 10.835938 -17.582031 11.796875 -17.09375 C 12.753906 -16.613281 13.503906 -15.96875 14.046875 -15.15625 L 14.046875 -23.3125 L 19.4375 -23.3125 L 19.4375 0 L 14.046875 0 L 14.046875 -2.515625 C 13.546875 -1.679688 12.828125 -1.007812 11.890625 -0.5 C 10.953125 0 9.863281 0.25 8.625 0.25 C 7.175781 0.25 5.863281 -0.117188 4.6875 -0.859375 C 3.507812 -1.609375 2.578125 -2.671875 1.890625 -4.046875 C 1.210938 -5.421875 0.875 -7.007812 0.875 -8.8125 Z M 14.046875 -8.78125 C 14.046875 -10.125 13.671875 -11.1875 12.921875 -11.96875 C 12.179688 -12.75 11.273438 -13.140625 10.203125 -13.140625 C 9.128906 -13.140625 8.21875 -12.753906 7.46875 -11.984375 C 6.726562 -11.222656 6.359375 -10.164062 6.359375 -8.8125 C 6.359375 -7.46875 6.726562 -6.398438 7.46875 -5.609375 C 8.21875 -4.828125 9.128906 -4.4375 10.203125 -4.4375 C 11.273438 -4.4375 12.179688 -4.820312 12.921875 -5.59375 C 13.671875 -6.375 14.046875 -7.4375 14.046875 -8.78125 Z M 14.046875 -8.78125 "/></g></g></g><g fill="#ffffff" fill-opacity="1"><g transform="translate(380.875942, 554.099993)"><g><path d="M 4.65625 -19.40625 C 3.71875 -19.40625 2.945312 -19.679688 2.34375 -20.234375 C 1.75 -20.796875 1.453125 -21.484375 1.453125 -22.296875 C 1.453125 -23.140625 1.75 -23.835938 2.34375 -24.390625 C 2.945312 -24.953125 3.71875 -25.234375 4.65625 -25.234375 C 5.582031 -25.234375 6.34375 -24.953125 6.9375 -24.390625 C 7.539062 -23.835938 7.84375 -23.140625 7.84375 -22.296875 C 7.84375 -21.484375 7.539062 -20.796875 6.9375 -20.234375 C 6.34375 -19.679688 5.582031 -19.40625 4.65625 -19.40625 Z M 7.34375 -17.578125 L 7.34375 0 L 1.953125 0 L 1.953125 -17.578125 Z M 7.34375 -17.578125 "/></g></g></g><g fill="#ffffff" fill-opacity="1"><g transform="translate(390.168452, 554.099993)"><g><path d="M 12.65625 -17.765625 C 14.71875 -17.765625 16.363281 -17.097656 17.59375 -15.765625 C 18.820312 -14.429688 19.4375 -12.597656 19.4375 -10.265625 L 19.4375 0 L 14.078125 0 L 14.078125 -9.546875 C 14.078125 -10.722656 13.769531 -11.632812 13.15625 -12.28125 C 12.550781 -12.9375 11.734375 -13.265625 10.703125 -13.265625 C 9.679688 -13.265625 8.863281 -12.9375 8.25 -12.28125 C 7.644531 -11.632812 7.34375 -10.722656 7.34375 -9.546875 L 7.34375 0 L 1.953125 0 L 1.953125 -17.578125 L 7.34375 -17.578125 L 7.34375 -15.25 C 7.882812 -16.019531 8.617188 -16.628906 9.546875 -17.078125 C 10.472656 -17.535156 11.507812 -17.765625 12.65625 -17.765625 Z M 12.65625 -17.765625 "/></g></g></g><g fill="#ffffff" fill-opacity="1"><g transform="translate(411.399484, 554.099993)"><g><path d="M 4.46875 0.25 C 3.53125 0.25 2.757812 -0.0234375 2.15625 -0.578125 C 1.5625 -1.140625 1.265625 -1.828125 1.265625 -2.640625 C 1.265625 -3.484375 1.5625 -4.1875 2.15625 -4.75 C 2.757812 -5.320312 3.53125 -5.609375 4.46875 -5.609375 C 5.394531 -5.609375 6.15625 -5.320312 6.75 -4.75 C 7.351562 -4.1875 7.65625 -3.484375 7.65625 -2.640625 C 7.65625 -1.828125 7.351562 -1.140625 6.75 -0.578125 C 6.15625 -0.0234375 5.394531 0.25 4.46875 0.25 Z M 4.46875 0.25 "/></g></g></g><g fill="#ffffff" fill-opacity="1"><g transform="translate(420.282491, 554.099993)"><g><path d="M 0.875 -8.78125 C 0.875 -10.613281 1.25 -12.210938 2 -13.578125 C 2.75 -14.941406 3.789062 -15.988281 5.125 -16.71875 C 6.457031 -17.457031 7.984375 -17.828125 9.703125 -17.828125 C 11.910156 -17.828125 13.753906 -17.25 15.234375 -16.09375 C 16.710938 -14.9375 17.679688 -13.3125 18.140625 -11.21875 L 12.40625 -11.21875 C 11.925781 -12.5625 10.992188 -13.234375 9.609375 -13.234375 C 8.617188 -13.234375 7.828125 -12.847656 7.234375 -12.078125 C 6.648438 -11.316406 6.359375 -10.21875 6.359375 -8.78125 C 6.359375 -7.351562 6.648438 -6.253906 7.234375 -5.484375 C 7.828125 -4.722656 8.617188 -4.34375 9.609375 -4.34375 C 10.992188 -4.34375 11.925781 -5.015625 12.40625 -6.359375 L 18.140625 -6.359375 C 17.679688 -4.304688 16.707031 -2.691406 15.21875 -1.515625 C 13.726562 -0.335938 11.890625 0.25 9.703125 0.25 C 7.984375 0.25 6.457031 -0.113281 5.125 -0.84375 C 3.789062 -1.582031 2.75 -2.632812 2 -4 C 1.25 -5.363281 0.875 -6.957031 0.875 -8.78125 Z M 0.875 -8.78125 "/></g></g></g><g fill="#ffffff" fill-opacity="1"><g transform="translate(439.340015, 554.099993)"><g><path d="M 9.953125 0.25 C 8.234375 0.25 6.6875 -0.113281 5.3125 -0.84375 C 3.9375 -1.582031 2.851562 -2.632812 2.0625 -4 C 1.269531 -5.363281 0.875 -6.957031 0.875 -8.78125 C 0.875 -10.59375 1.273438 -12.1875 2.078125 -13.5625 C 2.878906 -14.9375 3.972656 -15.988281 5.359375 -16.71875 C 6.742188 -17.457031 8.296875 -17.828125 10.015625 -17.828125 C 11.734375 -17.828125 13.285156 -17.457031 14.671875 -16.71875 C 16.066406 -15.988281 17.160156 -14.9375 17.953125 -13.5625 C 18.753906 -12.1875 19.15625 -10.59375 19.15625 -8.78125 C 19.15625 -6.976562 18.75 -5.390625 17.9375 -4.015625 C 17.125 -2.640625 16.019531 -1.582031 14.625 -0.84375 C 13.226562 -0.113281 11.671875 0.25 9.953125 0.25 Z M 9.953125 -4.40625 C 10.984375 -4.40625 11.859375 -4.78125 12.578125 -5.53125 C 13.304688 -6.289062 13.671875 -7.375 13.671875 -8.78125 C 13.671875 -10.195312 13.316406 -11.28125 12.609375 -12.03125 C 11.910156 -12.789062 11.046875 -13.171875 10.015625 -13.171875 C 8.960938 -13.171875 8.085938 -12.796875 7.390625 -12.046875 C 6.703125 -11.304688 6.359375 -10.21875 6.359375 -8.78125 C 6.359375 -7.375 6.695312 -6.289062 7.375 -5.53125 C 8.0625 -4.78125 8.921875 -4.40625 9.953125 -4.40625 Z M 9.953125 -4.40625 "/></g></g></g><g fill="#ffffff" fill-opacity="1"><g transform="translate(459.405535, 554.099993)"><g><path d="M 24.375 -17.765625 C 26.5625 -17.765625 28.300781 -17.101562 29.59375 -15.78125 C 30.882812 -14.457031 31.53125 -12.617188 31.53125 -10.265625 L 31.53125 0 L 26.171875 0 L 26.171875 -9.546875 C 26.171875 -10.679688 25.867188 -11.554688 25.265625 -12.171875 C 24.671875 -12.796875 23.851562 -13.109375 22.8125 -13.109375 C 21.757812 -13.109375 20.929688 -12.796875 20.328125 -12.171875 C 19.734375 -11.554688 19.4375 -10.679688 19.4375 -9.546875 L 19.4375 0 L 14.078125 0 L 14.078125 -9.546875 C 14.078125 -10.679688 13.773438 -11.554688 13.171875 -12.171875 C 12.578125 -12.796875 11.753906 -13.109375 10.703125 -13.109375 C 9.660156 -13.109375 8.835938 -12.796875 8.234375 -12.171875 C 7.640625 -11.554688 7.34375 -10.679688 7.34375 -9.546875 L 7.34375 0 L 1.953125 0 L 1.953125 -17.578125 L 7.34375 -17.578125 L 7.34375 -15.375 C 7.882812 -16.101562 8.59375 -16.679688 9.46875 -17.109375 C 10.351562 -17.546875 11.351562 -17.765625 12.46875 -17.765625 C 13.789062 -17.765625 14.972656 -17.476562 16.015625 -16.90625 C 17.054688 -16.34375 17.867188 -15.535156 18.453125 -14.484375 C 19.066406 -15.453125 19.894531 -16.238281 20.9375 -16.84375 C 21.988281 -17.457031 23.132812 -17.765625 24.375 -17.765625 Z M 24.375 -17.765625 "/></g></g></g></svg>